#N canvas 1358 -8 1920 997 12;
#X obj 31 64 mtof;
#X obj 31 111 line~;
#X obj 31 136 +~;
#X obj 31 160 phasor~ 440;
#X obj 31 185 *~ 2;
#X obj 31 209 -~ 1;
#X obj 142 462 *~;
#X obj 243 320 vsl 15 128 0 1 0 0 empty volumen empty 0 -9 0 10 -262144
-1 -1 1278 1;
#X obj 219 35 hsl 128 25 0 127 0 0 empty cutoff CUTOFF -2 -8 0 10 -260097
-1 -1 4177 1;
#X obj 216 68 mtof;
#X obj 216 92 pack f 20;
#X obj 216 115 line~;
#X obj 216 139 +~;
#X obj 216 166 clip~ 0 17000;
#X obj 204 259 bob~;
#X obj 232 223 hsl 128 25 0 3 0 0 empty peak PEAK -2 -8 0 10 -260097
-1 -1 6989 1;
#X obj 434 -41 hsl 128 25 -100 20 0 0 empty rate RATE -2 -8 0 10 -260097
-1 -1 5966 1;
#X obj 431 10 pack f 20;
#X obj 431 -12 mtof;
#X obj 431 32 line~;
#X obj 431 54 phasor~ 440;
#X obj 431 76 *~ -1;
#X obj 431 98 +~ 1;
#X obj 431 120 *~;
#X obj 548 54 mtof;
#X obj 551 25 hsl 128 25 0 127 0 0 empty amount AMOUNT -2 -8 0 10 -260097
-1 -1 7074 1;
#X obj 548 78 pack f 20;
#X obj 548 101 line~;
#X obj 31 -13 notein;
#X obj 31 13 stripnote;
#X floatatom 31 38 3 0 0 0 - - -;
#X obj 142 -43 vsl 15 128 20 2000 0 0 empty pack empty 0 -9 0 10 -262144
-1 -1 0 1;
#X obj 31 88 pack f 20;
#X obj 2 112 t b;
#X obj 12 267 tgl 15 0 empty empty empty 17 7 0 10 -262144 -1 -1 0
1;
#X obj 63 379 *~;
#X obj 112 317 tgl 15 1 empty SOS empty 17 7 0 10 -262144 -1 -1 0 1
;
#X obj 177 322 tgl 15 0 empty SOS empty 17 7 0 10 -262144 -1 -1 1 1
;
#X obj 77 334 *~;
#X obj 162 356 *~;
#X obj 51 3023 dac~;
#X msg 781 -11 \; pd dsp 1;
#X msg 781 27 \; pd dsp 0;
#X obj 863 -13 cnv 20 600 200 empty empty Controlador_Monotron 2 15
0 30 -260097 -1 0;
#X text 864 -34 Controlador Monotron;
#X obj 1395 22 vsl 30 150 20 2000 0 0 pack empty SMOTH 0 -9 0 15 -4034
-1 -1 0 1;
#X obj 875 40 hsl 150 30 0 127 0 0 cutoff empty CUTOFF -2 -8 0 15 -4160
-1 -1 4900 1;
#X obj 875 95 hsl 150 30 0 3 0 0 peak empty PEAK -2 -8 0 15 -4160 -1
-1 8200 1;
#X obj 1053 39 hsl 150 30 -100 20 0 0 rate empty RATE -2 -8 0 15 -4160
-1 -1 7000 1;
#X obj 1055 95 hsl 150 30 0 127 0 0 amount empty AMOUNT -2 -8 0 15
-4160 -1 -1 8300 1;
#X obj 1250 24 bng 50 500 50 0 SOS empty HOLD_KEY 0 -10 0 15 -203904
-1 -1;
#X obj 94 545 tgl 15 1 empty effects empty 17 7 0 10 -262144 -1 -1
0 1;
#X obj 162 541 tgl 15 0 empty effects empty 17 7 0 10 -262144 -1 -1
1 1;
#X obj 59 562 *~;
#X obj 132 565 *~;
#X obj 1318 101 tgl 50 0 empty effects empty 17 7 0 10 -258113 -4034
-1 1 1;
#X obj 1249 101 bng 50 250 50 0 effects empty EFECTOS 0 -10 0 15 -232576
-1 -1;
#X obj 1318 25 tgl 50 0 empty SOS empty 17 7 0 10 -258113 -4034 -1
1 1;
#X obj 121 595 cnv 20 400 250 empty empty empty 20 12 0 4 -159808 -66577
0;
#X obj 135 709 bp~;
#X obj 191 716 bp~;
#X obj 246 720 bp~;
#X obj 135 762 *~;
#X obj 202 762 *~;
#X obj 255 760 *~;
#X obj 152 743 nbx 5 14 -1e+037 1e+037 0 0 empty volumen_bp empty 0
-8 0 10 -262144 -1 -1 0 256;
#X floatatom 174 671 5 0 0 0 - bp1 -;
#X floatatom 174 695 5 0 0 0 - bp2 -;
#X floatatom 223 671 5 0 0 0 - bp3 -;
#X floatatom 221 695 5 0 0 0 - bp4 -;
#X floatatom 286 669 5 0 0 0 - bp5 -;
#X floatatom 285 695 5 0 0 0 - bp6 -;
#X obj 215 743 nbx 5 14 -1e+037 1e+037 0 0 empty volumen_bp1 empty
0 -8 0 10 -262144 -1 -1 0 256;
#X obj 272 743 nbx 5 14 -1e+037 1e+037 0 0 empty volumen_bp2 empty
0 -8 0 10 -262144 -1 -1 0 256;
#X obj 175 596 tgl 15 1 empty onoff_ecualizador empty 17 7 0 10 -262144
-1 -1 0 1;
#X obj 219 596 tgl 15 1 empty onoff_ecualizador empty 17 7 0 10 -262144
-1 -1 1 1;
#X floatatom 175 610 5 0 0 0 - - -;
#X floatatom 218 611 5 0 0 0 - - -;
#X obj 192 641 *~;
#X obj 130 628 *~;
#X obj 311 764 *~;
#X floatatom 338 679 5 0 0 0 - lop -;
#X obj 330 744 nbx 5 14 -1e+037 1e+037 0 0 empty lopv empty 0 -8 0
10 -262144 -1 -1 0 256;
#X obj 305 721 lop~;
#X obj 388 752 *~;
#X floatatom 400 697 5 0 0 0 - hip -;
#X obj 406 728 nbx 5 14 -1e+037 1e+037 0 0 empty hipv empty 0 -8 0
10 -262144 -1 -1 0 256;
#X obj 366 720 hip~;
#X obj 245 817 +~;
#X obj 131 598 +~;
#X obj 122 858 cnv 15 500 400 empty empty empty 20 12 0 14 -233017
-66577 0;
#X obj 360 927 +~;
#X obj 405 1171 +~;
#X obj 161 985 *~;
#X obj 219 1184 *~;
#X floatatom 252 1155 5 0 0 0 - flanger3 -;
#X floatatom 179 957 5 0 0 0 - flanger2 -;
#X obj 133 956 +~ 1;
#X floatatom 133 905 5 0 0 0 - flanger1 -;
#X obj 132 928 osc~ 1;
#X obj 226 1035 delwrite~ d2 2000;
#X obj 227 957 delwrite~ d1 3000;
#X obj 224 1096 delwrite~ d3 1000;
#X obj 228 998 delread4~ d1 1000;
#X obj 225 1063 delread4~ d2 2000;
#X obj 224 1125 delread4~ d3 3000;
#X obj 444 879 tgl 15 1 empty onoff_flanger empty 17 7 0 10 -262144
-1 -1 0 1;
#X obj 501 880 tgl 15 1 empty onoff_flanger empty 17 7 0 10 -262144
-1 -1 1 1;
#X floatatom 449 906 5 0 0 0 - - -;
#X floatatom 501 906 5 0 0 0 - - -;
#X obj 363 897 *~;
#X obj 422 973 *~;
#X obj 248 870 +~;
#X obj 449 1193 +~;
#X obj 123 1282 cnv 15 500 400 empty empty empty 20 12 0 14 -204800
-66577 0;
#X obj 363 1310 osc~;
#X obj 364 1333 +~ 1;
#X obj 364 1367 *~;
#X obj 361 1440 osc~;
#X obj 361 1503 *~;
#X obj 480 1313 osc~;
#X obj 480 1376 *~;
#X obj 479 1460 osc~;
#X obj 479 1523 *~;
#X obj 224 1286 tgl 15 1 empty onoff_chorus empty 17 7 0 10 -262144
-1 -1 0 1;
#X floatatom 201 1322 5 0 0 0 - - -;
#X obj 161 1349 *~;
#X obj 135 1478 *~;
#X obj 176 1396 tgl 15 1 empty onoff_chorus empty 17 7 0 10 -262144
-1 -1 1 1;
#X floatatom 176 1435 5 0 0 0 - - -;
#X obj 437 1471 +~;
#X obj 478 1559 +~;
#X obj 455 1598 +~;
#X obj 360 1535 delread4~ d6;
#X obj 224 1374 delwrite~ d6 5000;
#X obj 224 1394 delwrite~ d7 5000;
#X obj 225 1413 delwrite~ d8 5000;
#X obj 224 1354 delwrite~ d5 5000;
#X obj 361 1393 delread4~ d5;
#X obj 477 1397 delread4~ d7;
#X obj 528 1529 delread4~ d8;
#X obj 362 1473 +~ 1;
#X obj 481 1346 +~ 1;
#X obj 480 1493 +~ 1;
#X obj 428 1423 nbx 5 14 -1e+037 1e+037 0 1 empty empty empty 0 -8
0 10 -262144 -1 -1 3 256;
#X obj 365 1291 nbx 5 14 -1e+037 1e+037 0 1 empty empty empty 0 -8
0 10 -262144 -1 -1 1.5 256;
#X obj 362 1422 nbx 5 14 -1e+037 1e+037 0 1 empty empty empty 0 -8
0 10 -262144 -1 -1 1.91 256;
#X obj 482 1293 nbx 5 14 -1e+037 1e+037 0 1 empty empty empty 0 -8
0 10 -262144 -1 -1 2.06 256;
#X obj 481 1438 nbx 5 14 -1e+037 1e+037 0 1 empty empty empty 0 -8
0 10 -262144 -1 -1 2.25 256;
#X obj 144 1288 +~;
#X obj 266 1665 +~;
#X obj 124 1709 cnv 15 700 500 empty empty empty 20 12 0 14 -257985
-66577 0;
#X obj 167 1767 *~;
#X obj 169 1807 delwrite~ comb1 5000;
#X obj 196 1768 *~;
#X obj 225 1768 *~;
#X obj 255 1767 *~;
#X obj 316 1809 delwrite~ comb2 5000;
#X obj 464 1808 delwrite~ comb3 5000;
#X obj 615 1807 delwrite~ comb4 5000;
#X obj 187 1889 +~;
#X obj 295 1919 +~;
#X obj 217 1889 +~;
#X obj 259 1940 +~;
#X obj 418 1975 delwrite~ pas1 5000;
#X obj 415 1943 +~;
#X obj 468 1924 *~;
#X obj 270 1998 +~;
#X obj 304 2019 +~;
#X obj 461 2040 *~;
#X obj 369 2107 +~;
#X obj 303 2044 delwrite~ pas2 5000;
#X obj 270 1973 *~;
#X obj 274 2086 *~;
#X obj 377 1892 *~;
#X obj 616 1831 delread~ comb4 81;
#X obj 138 1806 *~;
#X obj 362 2140 *~;
#X obj 170 2090 +~;
#X obj 658 2086 +~;
#X obj 702 2053 *~;
#X obj 341 1890 *~;
#X obj 171 1829 delread~ comb1 36;
#X obj 316 1828 delread~ comb2 49;
#X obj 464 1830 delread~ comb3 72;
#X obj 306 1890 *~;
#X obj 269 1888 *~;
#X obj 416 1997 delread~ pas1 210;
#X obj 458 2070 delread~ pas2 111;
#X obj 632 1999 receive Dry/Wet;
#X obj 227 1729 nbx 5 14 -1e+037 1e+037 0 1 empty empty empty 0 -8
0 10 -262144 -1 -1 1 256;
#X obj 750 1997 nbx 5 14 -1e+037 1e+037 0 1 empty empty empty 0 -8
0 10 -262144 -1 -1 -1 256;
#X obj 607 2027 nbx 5 14 -1e+037 1e+037 0 1 empty empty empty 0 -8
0 10 -262144 -1 -1 1 256;
#X obj 330 1860 nbx 5 14 -1e+037 1e+037 0 1 empty empty empty 0 -8
0 10 -262144 -1 -1 0.2 256;
#X obj 501 1892 nbx 5 14 -1e+037 1e+037 0 1 empty empty empty 0 -8
0 10 -262144 -1 -1 -0.3 256;
#X obj 493 2027 nbx 5 14 -1e+037 1e+037 0 1 empty empty empty 0 -8
0 10 -262144 -1 -1 -0.5 256;
#X obj 288 1953 nbx 5 14 -1e+037 1e+037 0 1 empty empty empty 0 -8
0 10 -262144 -1 -1 0.3 256;
#X obj 306 2076 nbx 5 14 -1e+037 1e+037 0 1 empty empty empty 0 -8
0 10 -262144 -1 -1 0.5 256;
#X obj 627 1870 tgl 15 1 empty onoff_reve empty 17 7 0 10 -262144 -1
-1 0 1;
#X obj 671 1870 tgl 15 1 empty onoff_reve empty 17 7 0 10 -262144 -1
-1 1 1;
#X floatatom 626 1890 5 0 0 0 - - -;
#X floatatom 669 1891 5 0 0 0 - - -;
#X obj 621 1921 *~;
#X obj 137 1741 *~;
#X obj 136 1715 +~;
#X obj 196 2188 +~;
#X obj 130 2224 cnv 15 500 800 empty empty empty 20 12 0 14 -4160 -66577
0;
#X obj 360 2222 cnv 15 15 800 empty empty empty 20 12 0 14 -262144
-4160 0;
#X obj 130 2611 cnv 15 500 15 empty empty empty 20 12 0 14 -1856 -4160
0;
#X obj 412 2449 delwrite~ delay1 5000;
#X obj 442 2747 +~;
#X obj 182 2757 +~;
#X obj 183 2725 *~;
#X obj 442 2723 *~;
#X obj 414 2481 delread~ delay1 1000;
#X obj 306 2308 +~;
#X obj 172 2439 delwrite~ delay2 5000;
#X obj 173 2471 delread~ delay2 1000;
#X obj 227 2649 receive pingpong;
#X obj 442 2514 tgl 15 1 empty onoff_ping empty 17 7 0 10 -262144 -1
-1 0 1;
#X obj 487 2514 tgl 15 1 empty onoff_ping empty 17 7 0 10 -262144 -1
-1 1 1;
#X floatatom 442 2542 5 0 0 0 - - -;
#X floatatom 485 2543 5 0 0 0 - - -;
#X obj 487 2589 *~;
#X obj 307 2285 *~;
#X obj 306 2260 +~;
#X obj 182 2789 +~;
#X obj 441 2778 +~;
#X obj 1501 16 vsl 30 160 0 1 0 0 volumen empty VOLUMEN 0 -10 0 20
-4032 -1 -1 1600 1;
#X obj 862 195 cnv 20 650 300 empty empty empty 20 12 0 4 -159808 -66577
0;
#X floatatom 959 412 5 0 0 0 - - bp1;
#X floatatom 1012 412 5 0 0 0 - - bp2;
#X floatatom 1064 411 5 0 0 0 - - bp3;
#X floatatom 1114 409 5 0 0 0 - - bp4;
#X floatatom 1169 411 5 0 0 0 - - bp5;
#X floatatom 1219 409 5 0 0 0 - - bp6;
#X floatatom 959 460 5 0 1 0 - - volumen_bp;
#X floatatom 1064 460 5 0 1 0 - - volumen_bp1;
#X floatatom 1170 459 5 0 1 0 - - volumen_bp2;
#X text 892 221 Ecualizador multibanda;
#X obj 895 239 bng 50 250 50 0 onoff_ecualizador empty empty 17 7 0
10 -4034 -1 -1;
#X floatatom 1303 391 5 0 0 0 - - lop;
#X floatatom 1303 459 5 0 1 0 - - lopv;
#X floatatom 1410 388 5 0 0 0 - - hip;
#X floatatom 1417 458 5 0 1 0 - - hipv;
#X obj 959 252 vsl 20 150 0 20000 0 0 empty empty band_pas_1 0 -9 0
10 -13330 -1 -1 0 1;
#X obj 962 440 hsl 65 15 0 1 0 0 empty empty empty -2 -8 0 10 -13330
-1 -1 0 1;
#X obj 1012 252 vsl 20 150 0.3 20000 0 0 empty empty empty 0 -9 0 10
-13330 -1 -1 0 1;
#X obj 1064 252 vsl 20 150 0 20000 0 0 empty empty band_pass_2 0 -9
0 10 -13330 -1 -1 0 1;
#X obj 1067 440 hsl 65 15 0 1 0 0 empty empty empty -2 -8 0 10 -13330
-1 -1 0 1;
#X obj 1114 253 vsl 20 150 0.3 20000 0 0 empty empty empty 0 -9 0 10
-13330 -1 -1 0 1;
#X obj 1169 253 vsl 20 150 0 20000 0 0 empty empty band_pass_3 0 -9
0 10 -13330 -1 -1 0 1;
#X obj 1173 441 hsl 65 15 0 1 0 0 empty empty empty -2 -8 0 10 -13330
-1 -1 0 1;
#X obj 1219 252 vsl 20 150 0.3 20000 0 0 empty empty empty 0 -9 0 10
-13330 -1 -1 0 1;
#X obj 1303 227 vsl 20 150 0 20000 0 0 empty empty low_pass 0 -9 0
10 -13330 -1 -1 0 1;
#X obj 1306 431 hsl 65 15 0 1 0 0 empty empty empty -2 -8 0 10 -13330
-1 -1 0 1;
#X obj 1410 227 vsl 20 150 0 20000 0 0 empty empty high_pass 0 -9 0
10 -13330 -1 -1 0 1;
#X obj 1420 427 hsl 65 15 0 1 0 0 empty empty empty -2 -8 0 10 -13330
-1 -1 0 1;
#X obj 862 505 cnv 15 250 170 empty empty empty 20 12 0 14 -233017
-66577 0;
#X floatatom 950 549 5 0 0 0 - - flanger1;
#X floatatom 951 594 5 0 0 0 - - flanger2;
#X floatatom 951 639 5 0 1 0 - - flanger3;
#X text 886 539 Flanger;
#X obj 889 558 bng 50 250 50 0 onoff_flanger empty empty 17 7 0 10
-4034 -1 -1;
#X obj 953 529 hsl 128 15 0 50 0 0 empty empty empty -2 -8 0 10 -4032
-1 -1 1000 1;
#X obj 954 573 hsl 128 15 0 200 0 0 empty empty empty -2 -8 0 10 -4032
-1 -1 0 1;
#X obj 954 618 hsl 128 15 0 1 0 0 empty empty empty -2 -8 0 10 -4032
-1 -1 0 1;
#X obj 1433 505 cnv 15 80 80 empty empty empty 20 12 0 14 -204800 -66577
0;
#X obj 1447 526 bng 50 250 50 0 onoff_chorus empty empty 17 7 0 10
-4034 -1 -1;
#X text 1443 508 Chorus;
#X obj 1274 505 cnv 15 150 150 empty empty empty 20 12 0 14 -257985
-66577 0;
#X obj 1299 583 hsl 100 30 0 1 0 0 empty empty empty -2 -8 0 10 -260097
-1 -1 0 1;
#X obj 1296 621 send Dry/Wet;
#X text 1296 509 Reverberador;
#X obj 1296 529 bng 50 250 50 0 onoff_reve empty empty 17 7 0 10 -4034
-1 -1;
#X obj 1118 505 cnv 15 150 170 empty empty empty 20 12 0 14 -4160 -66577
0;
#X floatatom 1142 619 5 0 1 1 Ping_Pong_ - -;
#X obj 1142 646 send pingpong;
#X text 1142 505 Ping Pong;
#X obj 1144 526 bng 50 250 50 0 onoff_ping empty empty 17 7 0 10 -4034
-1 -1;
#X obj 1145 581 hsl 100 30 0 1 0 0 empty empty empty -2 -8 0 10 -258113
-1 -1 0 1;
#X connect 0 0 32 0;
#X connect 1 0 2 0;
#X connect 2 0 3 0;
#X connect 3 0 4 0;
#X connect 4 0 5 0;
#X connect 5 0 14 0;
#X connect 6 0 54 0;
#X connect 6 0 53 0;
#X connect 7 0 6 1;
#X connect 8 0 9 0;
#X connect 9 0 10 0;
#X connect 10 0 11 0;
#X connect 11 0 12 0;
#X connect 12 0 13 0;
#X connect 13 0 14 1;
#X connect 14 0 39 0;
#X connect 14 0 38 0;
#X connect 15 0 14 2;
#X connect 16 0 18 0;
#X connect 17 0 19 0;
#X connect 18 0 17 0;
#X connect 19 0 20 0;
#X connect 20 0 21 0;
#X connect 21 0 22 0;
#X connect 22 0 23 0;
#X connect 23 0 12 1;
#X connect 24 0 26 0;
#X connect 25 0 24 0;
#X connect 26 0 27 0;
#X connect 27 0 23 1;
#X connect 28 0 29 0;
#X connect 28 0 33 0;
#X connect 28 1 29 1;
#X connect 29 0 30 0;
#X connect 30 0 0 0;
#X connect 31 0 32 1;
#X connect 32 0 1 0;
#X connect 33 0 34 0;
#X connect 34 0 35 0;
#X connect 35 0 6 0;
#X connect 36 0 38 1;
#X connect 37 0 39 1;
#X connect 38 0 35 1;
#X connect 39 0 6 0;
#X connect 51 0 53 1;
#X connect 52 0 54 1;
#X connect 53 0 40 0;
#X connect 53 0 40 1;
#X connect 54 0 89 0;
#X connect 59 0 62 0;
#X connect 60 0 63 0;
#X connect 61 0 64 0;
#X connect 62 0 88 0;
#X connect 63 0 88 0;
#X connect 64 0 88 0;
#X connect 65 0 62 1;
#X connect 66 0 59 1;
#X connect 67 0 59 2;
#X connect 68 0 60 1;
#X connect 69 0 60 2;
#X connect 70 0 61 1;
#X connect 71 0 61 2;
#X connect 72 0 63 1;
#X connect 73 0 64 1;
#X connect 74 0 76 0;
#X connect 75 0 77 0;
#X connect 76 0 79 1;
#X connect 77 0 78 1;
#X connect 78 0 88 0;
#X connect 79 0 59 0;
#X connect 79 0 60 0;
#X connect 79 0 61 0;
#X connect 79 0 83 0;
#X connect 79 0 87 0;
#X connect 80 0 88 0;
#X connect 81 0 83 1;
#X connect 82 0 80 1;
#X connect 83 0 80 0;
#X connect 84 0 88 0;
#X connect 85 0 87 1;
#X connect 86 0 84 1;
#X connect 87 0 84 0;
#X connect 88 0 112 0;
#X connect 89 0 79 0;
#X connect 89 0 78 0;
#X connect 91 0 92 1;
#X connect 91 0 101 0;
#X connect 92 0 113 0;
#X connect 93 0 103 0;
#X connect 93 0 104 0;
#X connect 93 0 105 0;
#X connect 94 0 91 1;
#X connect 95 0 94 1;
#X connect 96 0 93 1;
#X connect 97 0 93 0;
#X connect 98 0 99 0;
#X connect 99 0 97 0;
#X connect 103 0 100 0;
#X connect 104 0 102 0;
#X connect 105 0 92 0;
#X connect 105 0 94 0;
#X connect 106 0 108 0;
#X connect 107 0 109 0;
#X connect 108 0 110 1;
#X connect 109 0 111 1;
#X connect 110 0 91 0;
#X connect 111 0 113 0;
#X connect 112 0 110 0;
#X connect 112 0 111 0;
#X connect 113 0 149 0;
#X connect 115 0 116 0;
#X connect 116 0 117 0;
#X connect 117 0 138 0;
#X connect 118 0 141 0;
#X connect 119 0 133 0;
#X connect 120 0 142 0;
#X connect 121 0 139 0;
#X connect 122 0 143 0;
#X connect 123 0 140 0;
#X connect 124 0 125 0;
#X connect 125 0 126 1;
#X connect 126 0 134 0;
#X connect 126 0 135 0;
#X connect 126 0 136 0;
#X connect 126 0 137 0;
#X connect 127 0 150 0;
#X connect 128 0 129 0;
#X connect 129 0 127 1;
#X connect 130 0 132 0;
#X connect 131 0 132 1;
#X connect 132 0 150 0;
#X connect 133 0 130 1;
#X connect 138 0 130 0;
#X connect 139 0 131 0;
#X connect 140 0 131 1;
#X connect 141 0 119 0;
#X connect 142 0 121 0;
#X connect 143 0 123 0;
#X connect 144 0 117 1;
#X connect 144 0 119 1;
#X connect 144 0 121 1;
#X connect 144 0 123 1;
#X connect 145 0 115 0;
#X connect 146 0 118 0;
#X connect 147 0 120 0;
#X connect 148 0 122 0;
#X connect 149 0 126 0;
#X connect 149 0 127 0;
#X connect 150 0 204 0;
#X connect 152 0 153 0;
#X connect 154 0 157 0;
#X connect 155 0 158 0;
#X connect 156 0 159 0;
#X connect 160 0 163 0;
#X connect 161 0 163 1;
#X connect 162 0 161 0;
#X connect 163 0 165 0;
#X connect 163 0 172 0;
#X connect 165 0 164 0;
#X connect 166 0 165 1;
#X connect 167 0 168 0;
#X connect 167 0 173 0;
#X connect 168 0 171 0;
#X connect 169 0 168 1;
#X connect 170 0 177 0;
#X connect 172 0 167 0;
#X connect 173 0 170 0;
#X connect 174 0 159 0;
#X connect 175 0 161 1;
#X connect 175 0 174 0;
#X connect 176 0 178 0;
#X connect 177 0 178 1;
#X connect 178 0 205 0;
#X connect 179 0 177 1;
#X connect 180 0 179 1;
#X connect 181 0 158 0;
#X connect 182 0 160 1;
#X connect 182 0 186 0;
#X connect 183 0 162 0;
#X connect 183 0 185 0;
#X connect 184 0 162 1;
#X connect 184 0 181 0;
#X connect 185 0 157 0;
#X connect 186 0 153 0;
#X connect 187 0 166 0;
#X connect 187 0 167 1;
#X connect 188 0 169 0;
#X connect 188 0 170 1;
#X connect 189 0 176 1;
#X connect 189 0 180 0;
#X connect 190 0 156 1;
#X connect 190 0 155 1;
#X connect 190 0 154 1;
#X connect 190 0 152 1;
#X connect 191 0 180 1;
#X connect 192 0 179 0;
#X connect 193 0 174 1;
#X connect 193 0 181 1;
#X connect 193 0 185 1;
#X connect 193 0 186 1;
#X connect 194 0 166 1;
#X connect 195 0 169 1;
#X connect 196 0 172 1;
#X connect 197 0 173 1;
#X connect 198 0 200 0;
#X connect 199 0 201 0;
#X connect 200 0 203 1;
#X connect 201 0 202 1;
#X connect 202 0 205 0;
#X connect 203 0 176 0;
#X connect 203 0 160 0;
#X connect 203 0 152 0;
#X connect 203 0 154 0;
#X connect 203 0 155 0;
#X connect 203 0 156 0;
#X connect 204 0 203 0;
#X connect 204 0 202 0;
#X connect 205 0 225 0;
#X connect 210 0 227 0;
#X connect 211 0 226 0;
#X connect 212 0 211 0;
#X connect 212 0 215 1;
#X connect 213 0 210 0;
#X connect 213 0 216 0;
#X connect 214 0 213 0;
#X connect 215 0 209 0;
#X connect 217 0 212 0;
#X connect 218 0 213 1;
#X connect 218 0 212 1;
#X connect 219 0 221 0;
#X connect 220 0 222 0;
#X connect 221 0 224 1;
#X connect 222 0 223 1;
#X connect 223 0 226 0;
#X connect 223 0 227 0;
#X connect 224 0 215 0;
#X connect 224 0 210 1;
#X connect 224 0 211 1;
#X connect 225 0 224 0;
#X connect 225 0 223 0;
#X connect 226 0 40 0;
#X connect 227 0 40 1;
#X connect 245 0 230 0;
#X connect 246 0 236 0;
#X connect 247 0 231 0;
#X connect 248 0 232 0;
#X connect 249 0 237 0;
#X connect 250 0 233 0;
#X connect 251 0 234 0;
#X connect 252 0 238 0;
#X connect 253 0 235 0;
#X connect 254 0 241 0;
#X connect 255 0 242 0;
#X connect 256 0 243 0;
#X connect 257 0 244 0;
#X connect 264 0 259 0;
#X connect 265 0 260 0;
#X connect 266 0 261 0;
#X connect 271 0 272 0;
#X connect 276 0 277 0;
#X connect 280 0 276 0;
