#N canvas 69 14 2371 1268 12;
#N canvas 638 153 1161 950 Reverberador 0;
#X obj 178 -181 *~;
#X obj 182 -136 delwrite~ comb1 5000;
#X obj 222 -181 *~;
#X obj 263 -181 *~;
#X obj 301 -181 *~;
#X obj 328 -136 delwrite~ comb2 5000;
#X obj 478 -136 delwrite~ comb3 5000;
#X obj 625 -136 delwrite~ comb4 5000;
#X msg 913 -126 \; pd dsp 1;
#X msg 913 -87 \; pd dsp 0;
#X obj 155 -54 +~;
#X obj 189 0 +~;
#X obj 185 -54 +~;
#X obj 153 21 +~;
#X obj 295 151 delwrite~ pas1 5000;
#X obj 307 81 +~;
#X obj 387 67 *~;
#X obj 264 240 +~;
#X obj 303 284 +~;
#X obj 383 270 *~;
#X obj 275 460 +~;
#X obj 291 354 delwrite~ pas2 5000;
#X obj 164 136 *~;
#X obj 157 373 *~;
#X obj 700 5 *~;
#X obj 626 -106 delread~ comb4 81;
#X obj 56 -117 *~;
#X obj 256 584 *~;
#X obj 62 507 +~;
#X obj 632 493 +~;
#X obj 702 381 *~;
#X obj 604 4 *~;
#X obj 185 -107 delread~ comb1 36;
#X obj 331 -106 delread~ comb2 49;
#X obj 479 -106 delread~ comb3 72;
#X obj 539 4 *~;
#X obj 487 3 *~;
#X obj 337 192 delread~ pas1 210;
#X obj 333 395 delread~ pas2 111;
#X obj 62 684 outlet~;
#X obj 700 204 receive Dry/Wet;
#X obj 366 -220 nbx 5 14 -1e+037 1e+037 0 1 empty empty empty 0 -8
0 10 -262144 -1 -1 1 256;
#X obj 750 325 nbx 5 14 -1e+037 1e+037 0 1 empty empty empty 0 -8 0
10 -262144 -1 -1 -1 256;
#X obj 581 434 nbx 5 14 -1e+037 1e+037 0 1 empty empty empty 0 -8 0
10 -262144 -1 -1 1 256;
#X obj 748 -49 nbx 5 14 -1e+037 1e+037 0 1 empty empty empty 0 -8 0
10 -262144 -1 -1 0.2 256;
#X obj 416 15 nbx 5 14 -1e+037 1e+037 0 1 empty empty empty 0 -8 0
10 -262144 -1 -1 -0.3 256;
#X obj 414 222 nbx 5 14 -1e+037 1e+037 0 1 empty empty empty 0 -8 0
10 -262144 -1 -1 -0.5 256;
#X obj 190 80 nbx 5 14 -1e+037 1e+037 0 1 empty empty empty 0 -8 0
10 -262144 -1 -1 0.3 256;
#X obj 202 330 nbx 5 14 -1e+037 1e+037 0 1 empty empty empty 0 -8 0
10 -262144 -1 -1 0.5 256;
#X obj 813 -2 tgl 15 1 empty onoff_reve empty 17 7 0 10 -262144 -1
-1 0 1;
#X obj 858 -2 tgl 15 1 empty onoff_reve empty 17 7 0 10 -262144 -1
-1 1 1;
#X floatatom 813 26 5 0 0 0 - - -;
#X floatatom 856 27 5 0 0 0 - - -;
#X obj 840 89 *~;
#X obj 49 -205 *~;
#X obj 51 -231 inlet~;
#X connect 0 0 1 0;
#X connect 2 0 5 0;
#X connect 3 0 6 0;
#X connect 4 0 7 0;
#X connect 10 0 13 0;
#X connect 11 0 13 1;
#X connect 12 0 11 0;
#X connect 13 0 15 0;
#X connect 13 0 22 0;
#X connect 15 0 14 0;
#X connect 16 0 15 1;
#X connect 17 0 18 0;
#X connect 17 0 23 0;
#X connect 18 0 21 0;
#X connect 19 0 18 1;
#X connect 20 0 27 0;
#X connect 22 0 17 0;
#X connect 23 0 20 0;
#X connect 24 0 7 0;
#X connect 25 0 11 1;
#X connect 25 0 24 0;
#X connect 26 0 28 0;
#X connect 27 0 28 1;
#X connect 28 0 39 0;
#X connect 29 0 27 1;
#X connect 30 0 29 1;
#X connect 31 0 6 0;
#X connect 32 0 10 1;
#X connect 32 0 36 0;
#X connect 33 0 12 0;
#X connect 33 0 35 0;
#X connect 34 0 12 1;
#X connect 34 0 31 0;
#X connect 35 0 5 0;
#X connect 36 0 1 0;
#X connect 37 0 16 0;
#X connect 37 0 17 1;
#X connect 38 0 19 0;
#X connect 38 0 20 1;
#X connect 40 0 26 1;
#X connect 40 0 30 0;
#X connect 41 0 4 1;
#X connect 41 0 3 1;
#X connect 41 0 2 1;
#X connect 41 0 0 1;
#X connect 42 0 30 1;
#X connect 43 0 29 0;
#X connect 44 0 24 1;
#X connect 44 0 31 1;
#X connect 44 0 35 1;
#X connect 44 0 36 1;
#X connect 45 0 16 1;
#X connect 46 0 19 1;
#X connect 47 0 22 1;
#X connect 48 0 23 1;
#X connect 49 0 51 0;
#X connect 50 0 52 0;
#X connect 51 0 54 1;
#X connect 52 0 53 1;
#X connect 53 0 39 0;
#X connect 54 0 26 0;
#X connect 54 0 10 0;
#X connect 54 0 0 0;
#X connect 54 0 2 0;
#X connect 54 0 3 0;
#X connect 54 0 4 0;
#X connect 55 0 54 0;
#X connect 55 0 53 0;
#X restore 927 122 pd Reverberador;
#X obj 930 11 adc~;
#N canvas 674 161 1613 1115 delayPingPong 0;
#X obj 28 382 outlet~;
#X obj 275 368 outlet~;
#X obj 208 133 delwrite~ delay1 5000;
#X obj 276 337 +~;
#X obj 28 350 +~;
#X obj 29 318 *~;
#X obj 276 313 *~;
#X obj 210 165 delread~ delay1 1000;
#X obj 196 51 +~;
#X obj 26 133 delwrite~ delay2 5000;
#X obj 27 165 delread~ delay2 1000;
#X obj 125 257 receive pingpong;
#X obj 895 338 tgl 15 1 empty onoff_ping empty 17 7 0 10 -262144 -1
-1 0 1;
#X obj 940 338 tgl 15 1 empty onoff_ping empty 17 7 0 10 -262144 -1
-1 1 1;
#X floatatom 895 366 5 0 0 0 - - -;
#X floatatom 938 367 5 0 0 0 - - -;
#X obj 940 413 *~;
#X obj 197 28 *~;
#X obj 196 3 inlet~;
#X connect 3 0 1 0;
#X connect 4 0 0 0;
#X connect 5 0 4 0;
#X connect 5 0 8 1;
#X connect 6 0 3 0;
#X connect 6 0 9 0;
#X connect 7 0 6 0;
#X connect 8 0 2 0;
#X connect 10 0 5 0;
#X connect 11 0 6 1;
#X connect 11 0 5 1;
#X connect 12 0 14 0;
#X connect 13 0 15 0;
#X connect 14 0 17 1;
#X connect 15 0 16 1;
#X connect 16 0 1 0;
#X connect 16 0 0 0;
#X connect 17 0 8 0;
#X connect 17 0 3 1;
#X connect 17 0 4 1;
#X connect 18 0 17 0;
#X connect 18 0 16 0;
#X restore 927 146 pd delayPingPong;
#X obj 953 199 dac~;
#N canvas 807 157 1305 1029 ecualizadormultibanda 0;
#X obj 162 468 outlet~;
#X obj 59 231 bp~;
#X obj 146 231 bp~;
#X obj 242 231 bp~;
#X obj 72 370 *~;
#X obj 157 369 *~;
#X obj 253 369 *~;
#X obj 89 296 nbx 5 14 -1e+037 1e+037 0 0 empty volumen_bp empty 0
-8 0 10 -262144 -1 -1 0.2 256;
#X floatatom 98 193 5 0 0 0 - bp1 -;
#X floatatom 98 217 5 0 0 0 - bp2 -;
#X floatatom 178 186 5 0 0 0 - bp3 -;
#X floatatom 178 210 5 0 0 0 - bp4 -;
#X floatatom 282 180 5 0 0 0 - bp5 -;
#X floatatom 281 206 5 0 0 0 - bp6 -;
#X obj 164 298 nbx 5 14 -1e+037 1e+037 0 0 empty volumen_bp1 empty
0 -8 0 10 -262144 -1 -1 0.22 256;
#X obj 262 299 nbx 5 14 -1e+037 1e+037 0 0 empty volumen_bp2 empty
0 -8 0 10 -262144 -1 -1 0.6 256;
#X obj 333 33 tgl 15 1 empty onoff_ecualizador empty 17 7 0 10 -262144
-1 -1 0 1;
#X obj 377 33 tgl 15 1 empty onoff_ecualizador empty 17 7 0 10 -262144
-1 -1 1 1;
#X floatatom 333 61 5 0 0 0 - - -;
#X floatatom 376 62 5 0 0 0 - - -;
#X obj 378 108 *~;
#X obj 142 99 *~;
#X obj 146 25 inlet~;
#X obj 360 357 *~;
#X floatatom 388 194 5 0 0 0 - lop -;
#X obj 390 289 nbx 5 14 -1e+037 1e+037 0 0 empty lopv empty 0 -8 0
10 -262144 -1 -1 0.23 256;
#X obj 349 219 lop~;
#X obj 462 335 *~;
#X floatatom 485 174 5 0 0 0 - hip -;
#X obj 492 267 nbx 5 14 -1e+037 1e+037 0 0 empty hipv empty 0 -8 0
10 -262144 -1 -1 0.19 256;
#X obj 451 197 hip~;
#X connect 1 0 4 0;
#X connect 2 0 5 0;
#X connect 3 0 6 0;
#X connect 4 0 0 0;
#X connect 5 0 0 0;
#X connect 6 0 0 0;
#X connect 7 0 4 1;
#X connect 8 0 1 1;
#X connect 9 0 1 2;
#X connect 10 0 2 1;
#X connect 11 0 2 2;
#X connect 12 0 3 1;
#X connect 13 0 3 2;
#X connect 14 0 5 1;
#X connect 15 0 6 1;
#X connect 16 0 18 0;
#X connect 17 0 19 0;
#X connect 18 0 21 1;
#X connect 19 0 20 1;
#X connect 20 0 0 0;
#X connect 21 0 1 0;
#X connect 21 0 2 0;
#X connect 21 0 3 0;
#X connect 21 0 26 0;
#X connect 21 0 30 0;
#X connect 22 0 21 0;
#X connect 22 0 20 0;
#X connect 23 0 0 0;
#X connect 24 0 26 1;
#X connect 25 0 23 1;
#X connect 26 0 23 0;
#X connect 27 0 0 0;
#X connect 28 0 30 1;
#X connect 29 0 27 1;
#X connect 30 0 27 0;
#X restore 929 42 pd ecualizadormultibanda;
#N canvas 500 88 1665 1269 flanger 0;
#X obj 399 27 inlet~;
#X obj 381 354 outlet~;
#X obj 398 109 +~;
#X obj 337 332 +~;
#X obj 54 188 *~;
#X obj 200 364 *~;
#X floatatom 233 335 5 0 0 0 - flanger3 -;
#X floatatom 72 160 5 0 0 0 - flanger2 -;
#X obj 26 159 +~ 1;
#X floatatom 26 108 5 0 0 0 - flanger1 -;
#X obj 25 131 osc~ 1;
#X obj 207 215 delwrite~ d2 2000;
#X obj 208 137 delwrite~ d1 3000;
#X obj 205 276 delwrite~ d3 1000;
#X obj 209 178 delread4~ d1 1000;
#X obj 206 243 delread4~ d2 2000;
#X obj 205 305 delread4~ d3 3000;
#X obj 464 59 tgl 15 1 empty onoff_flanger empty 17 7 0 10 -262144
-1 -1 0 1;
#X obj 521 60 tgl 15 1 empty onoff_flanger empty 17 7 0 10 -262144
-1 -1 1 1;
#X floatatom 469 86 5 0 0 0 - - -;
#X floatatom 521 86 5 0 0 0 - - -;
#X obj 401 79 *~;
#X obj 442 153 *~;
#X connect 0 0 21 0;
#X connect 0 0 22 0;
#X connect 2 0 3 1;
#X connect 2 0 12 0;
#X connect 3 0 1 0;
#X connect 4 0 14 0;
#X connect 4 0 15 0;
#X connect 4 0 16 0;
#X connect 5 0 2 1;
#X connect 6 0 5 1;
#X connect 7 0 4 1;
#X connect 8 0 4 0;
#X connect 9 0 10 0;
#X connect 10 0 8 0;
#X connect 14 0 11 0;
#X connect 15 0 13 0;
#X connect 16 0 3 0;
#X connect 16 0 5 0;
#X connect 17 0 19 0;
#X connect 18 0 20 0;
#X connect 19 0 21 1;
#X connect 20 0 22 1;
#X connect 21 0 2 0;
#X connect 22 0 1 0;
#X restore 929 69 pd flanger;
#X obj 206 965 bng 15 250 50 0 empty empty empty 17 7 0 10 -262144
-1 -1;
#X msg 12 1149 read -resize audiocorto.wav tabla2;
#N canvas 0 50 450 250 (subpatch) 0;
#X array tabla2 435512 float 2;
#X coords 0 1 435512 -1 200 140 1;
#X restore 14 889 graph;
#X obj 203 1023 tabplay~ tabla2;
#X obj 10 1185 soundfiler;
#X obj 203 1105 dac~;
#X obj 13 1061 bng 15 250 50 0 empty empty empty 17 7 0 10 -262144
-1 -1;
#X obj 10 1119 tabplay~ tabla2;
#N canvas 922 170 1384 997 chorus 0;
#X obj 243 136 osc~;
#X obj 244 159 +~ 1;
#X obj 244 193 *~;
#X obj 244 271 osc~;
#X obj 244 334 *~;
#X obj 242 420 osc~;
#X obj 242 483 *~;
#X obj 242 557 osc~;
#X obj 242 620 *~;
#X obj 19 217 inlet~;
#X obj 107 180 tgl 15 1 empty onoff_chorus empty 17 7 0 10 -262144
-1 -1 0 1;
#X floatatom 84 216 5 0 0 0 - - -;
#X obj 357 460 outlet~;
#X obj 44 243 *~;
#X obj 33 419 *~;
#X obj 74 337 tgl 15 1 empty onoff_chorus empty 17 7 0 10 -262144 -1
-1 1 1;
#X floatatom 74 376 5 0 0 0 - - -;
#X obj 399 300 +~;
#X obj 428 539 +~;
#X obj 448 413 +~;
#X obj 243 366 delread4~ d6;
#X obj 107 268 delwrite~ d6 5000;
#X obj 107 288 delwrite~ d7 5000;
#X obj 108 307 delwrite~ d8 5000;
#X obj 107 248 delwrite~ d5 5000;
#X obj 241 219 delread4~ d5;
#X obj 239 504 delread4~ d7;
#X obj 291 626 delread4~ d8;
#X obj 245 304 +~ 1;
#X obj 243 453 +~ 1;
#X obj 243 590 +~ 1;
#X obj 609 210 nbx 5 14 -1e+037 1e+037 0 1 empty empty empty 0 -8 0
10 -262144 -1 -1 3 256;
#X obj 310 105 nbx 5 14 -1e+037 1e+037 0 1 empty empty empty 0 -8 0
10 -262144 -1 -1 1.5 256;
#X obj 330 249 nbx 5 14 -1e+037 1e+037 0 1 empty empty empty 0 -8 0
10 -262144 -1 -1 1.91 256;
#X obj 337 397 nbx 5 14 -1e+037 1e+037 0 1 empty empty empty 0 -8 0
10 -262144 -1 -1 2.06 256;
#X obj 336 538 nbx 5 14 -1e+037 1e+037 0 1 empty empty empty 0 -8 0
10 -262144 -1 -1 2.25 256;
#X connect 0 0 1 0;
#X connect 1 0 2 0;
#X connect 2 0 25 0;
#X connect 3 0 28 0;
#X connect 4 0 20 0;
#X connect 5 0 29 0;
#X connect 6 0 26 0;
#X connect 7 0 30 0;
#X connect 8 0 27 0;
#X connect 9 0 13 0;
#X connect 9 0 14 0;
#X connect 10 0 11 0;
#X connect 11 0 13 1;
#X connect 13 0 21 0;
#X connect 13 0 22 0;
#X connect 13 0 23 0;
#X connect 13 0 24 0;
#X connect 14 0 12 0;
#X connect 15 0 16 0;
#X connect 16 0 14 1;
#X connect 17 0 19 0;
#X connect 18 0 19 1;
#X connect 19 0 12 0;
#X connect 20 0 17 1;
#X connect 25 0 17 0;
#X connect 26 0 18 0;
#X connect 27 0 18 1;
#X connect 28 0 4 0;
#X connect 29 0 6 0;
#X connect 30 0 8 0;
#X connect 31 0 2 1;
#X connect 31 0 4 1;
#X connect 31 0 6 1;
#X connect 31 0 8 1;
#X connect 32 0 0 0;
#X connect 33 0 3 0;
#X connect 34 0 5 0;
#X connect 35 0 7 0;
#X restore 929 97 pd chorus;
#X obj 7 7 cnv 20 900 200 empty empty empty 20 12 0 4 -232576 -66577
0;
#X obj 46 90 hsl 100 30 0 1 0 0 empty empty empty -2 -8 0 10 -4032
-1 -1 14400 1;
#X obj 43 128 send Dry/Wet;
#X floatatom 173 87 5 0 1 1 Ping_Pong_ - -;
#X obj 173 114 send pingpong;
#X floatatom 374 36 5 0 0 0 - - bp1;
#X floatatom 374 61 5 0 0 0 - - bp2;
#X floatatom 447 35 5 0 0 0 - - bp3;
#X floatatom 447 58 5 0 0 0 - - bp4;
#X floatatom 521 35 5 0 0 0 - - bp5;
#X floatatom 521 58 5 0 0 0 - - bp6;
#X floatatom 374 86 5 0 1 0 - - volumen_bp;
#X floatatom 448 84 5 0 1 0 - - volumen_bp1;
#X floatatom 522 83 5 0 1 0 - - volumen_bp2;
#X floatatom 651 28 5 0 0 0 - - flanger1;
#X floatatom 651 49 5 0 0 0 - - flanger2;
#X floatatom 651 70 5 0 1 0 - - flanger3;
#X obj 728 28 bng 50 250 50 0 onoff_chorus empty empty 17 7 0 10 -4034
-1 -1;
#X text 43 16 Reverberador;
#X text 171 14 Ping Pong;
#X text 308 14 Ecualizador multibanda;
#X text 591 8 Flanger;
#X text 724 10 Chorus;
#X obj 594 27 bng 50 250 50 0 onoff_flanger empty empty 17 7 0 10 -4034
-1 -1;
#X obj 311 32 bng 50 250 50 0 onoff_ecualizador empty empty 17 7 0
10 -4034 -1 -1;
#X obj 173 35 bng 50 250 50 0 onoff_ping empty empty 17 7 0 10 -4034
-1 -1;
#X obj 43 36 bng 50 250 50 0 onoff_reve empty empty 17 7 0 10 -4034
-1 -1;
#X msg 795 19 \; pd dsp 1;
#X msg 795 57 \; pd dsp 0;
#X floatatom 412 124 5 0 0 0 low_pass - lop;
#X floatatom 412 147 5 0 1 0 - - lopv;
#X floatatom 521 125 5 0 0 0 high_pass - hip;
#X floatatom 521 146 5 0 1 0 - - hipv;
#X connect 0 0 2 0;
#X connect 1 0 4 0;
#X connect 2 0 3 0;
#X connect 2 1 3 1;
#X connect 4 0 5 0;
#X connect 5 0 14 0;
#X connect 6 0 9 0;
#X connect 7 0 10 0;
#X connect 9 0 11 0;
#X connect 9 0 11 1;
#X connect 12 0 13 0;
#X connect 14 0 0 0;
#X connect 16 0 17 0;
#X connect 18 0 19 0;
#X coords 0 0 1 0.5 0 0 0;
